# File created by Blade
# Date/Time:  Wed Apr 08 17:39:41 2015
#---------------------------------------------------------
:version 1.10
:name HOM
:units
  mass 1.0
  length 1.000000
  angle deg
:documentation
     Acclaim Skeleton File
:root
   axis xyz
   order TX TY TZ RX RY RZ
   position 0.000000 0.000000 0.000000
   orientation 0 0 0
:bonedata
   begin
      id 1
      name Spine_dum
      direction 0.000000 1.000000 0.000000
      length 5.893853
      axis 0.0 0.0 0.0 xyz
   end
   begin
      id 2
      name LeftUpLeg_dum
      direction 1.000000 0.000000 0.000000
      length 3.697939
      axis 0.0 0.0 0.0 xyz
   end
   begin
      id 3
      name RightUpLeg_dum
      direction -1.000000 0.000000 0.000000
      length 3.697939
      axis 0.0 0.0 0.0 xyz
   end
   begin
      id 4
      name Spine
      direction 0.000000 1.000000 0.000000
      length 0.000000
      axis 0.0 0.0 0.0 xyz
      dof rx ry rz
   end
   begin
      id 5
      name Spine_dum1
      direction 0.000000 1.000000 0.000000
      length 16.447146
      axis 0.0 0.0 0.0 xyz
   end
   begin
      id 6
      name Spine_dum2
      direction 0.000000 1.000000 0.000000
      length 10.900383
      axis 0.0 0.0 0.0 xyz
   end
   begin
      id 7
      name Spine_dum3
      direction 0.000000 1.000000 0.000000
      length 10.900383
      axis 0.0 0.0 0.0 xyz
   end
   begin
      id 8
      name Head
      direction 0.000000 1.000000 0.000000
      length 4.527550
      axis 0.0 0.0 0.0 xyz
      dof rx ry rz
   end
   begin
      id 9
      name LeftShoulder
      direction 1.000000 0.000000 0.000000
      length 8.219464
      axis 0.0 0.0 -90.0 xyz
      dof rx ry rz
   end
   begin
      id 10
      name LeftArm
      direction 1.000000 0.000000 0.000000
      length 11.094937
      axis 0.0 0.0 -90.0 xyz
      dof rx ry rz
   end
   begin
      id 11
      name LeftForeArm
      direction 1.000000 0.000000 0.000000
      length 9.103875
      axis 0.0 0.0 -90.0 xyz
      dof ry rz rx
   end
   begin
      id 12
      name LeftHand
      direction 0.000000 0.000000 0.000000
      length 0.000000
      axis 0.0 0.0 -90.0 xyz
      dof rx ry rz
   end
   begin
      id 13
      name LeftHand_dum1
      direction 0.000000 0.000000 0.000000
      length 0.000000
      axis 0.0 0.0 -90.0 xyz
   end
   begin
      id 14
      name LeftHand_dum2
      direction 1.000000 0.000000 0.000000
      length 3.937000
      axis 0.0 0.0 -90.0 xyz
   end
   begin
      id 15
      name LeftHandThumb1
      direction 0.000000 0.000000 1.000000
      length 3.937000
      axis 0.0 0.0 -90.0 xyz
      dof rx rz ry
   end
   begin
      id 16
      name RightShoulder
      direction -1.000000 0.000000 0.000000
      length 8.219464
      axis 0.0 0.0 90.0 xyz
      dof rx ry rz
   end
   begin
      id 17
      name RightArm
      direction -1.000000 0.000000 0.000000
      length 11.094937
      axis 0.0 0.0 90.0 xyz
      dof rx ry rz
   end
   begin
      id 18
      name RightForeArm
      direction -1.000000 0.000000 0.000000
      length 9.103875
      axis 0.0 0.0 90.0 xyz
      dof ry rz rx
   end
   begin
      id 19
      name RightHand
      direction 0.000000 0.000000 0.000000
      length 0.000000
      axis 0.0 0.0 90.0 xyz
      dof rx ry rz
   end
   begin
      id 20
      name RightHand_dum1
      direction 0.000000 0.000000 0.000000
      length 0.000000
      axis 0.0 0.0 90.0 xyz
   end
   begin
      id 21
      name RightHand_dum2
      direction -1.000000 0.000000 0.000000
      length 3.937000
      axis 0.0 0.0 90.0 xyz
   end
   begin
      id 22
      name RightHandThumb1
      direction 0.000000 0.000000 1.000000
      length 3.937000
      axis 0.0 0.0 90.0 xyz
      dof rx rz ry
   end
   begin
      id 23
      name LeftUpLeg
      direction 0.000000 -1.000000 0.000000
      length 16.181467
      axis 0.0 0.0 0.0 xyz
      dof rx ry rz
   end
   begin
      id 24
      name LeftLeg
      direction 0.000000 -1.000000 0.000000
      length 16.501392
      axis 0.0 0.0 0.0 xyz
      dof rx ry rz
   end
   begin
      id 25
      name LeftFoot
      direction 0.000000 -0.258819 0.965926
      length 6.408245
      axis 15.0 0.0 0.0 xyz
      dof rx ry rz
   end
   begin
      id 26
      name LeftToeBase
      direction 0.000000 0.000000 1.000000
      length 2.952750
      axis 0.0 0.0 0.0 xyz
      dof rx ry rz
   end
   begin
      id 27
      name RightUpLeg
      direction 0.000000 -1.000000 0.000000
      length 16.181467
      axis 0.0 0.0 0.0 xyz
      dof rx ry rz
   end
   begin
      id 28
      name RightLeg
      direction 0.000000 -1.000000 0.000000
      length 16.501392
      axis 0.0 0.0 0.0 xyz
      dof rx ry rz
   end
   begin
      id 29
      name RightFoot
      direction 0.000000 -0.258819 0.965926
      length 6.408245
      axis 15.0 0.0 0.0 xyz
      dof rx ry rz
   end
   begin
      id 30
      name RightToeBase
      direction 0.000000 0.000000 1.000000
      length 2.952750
      axis 0.0 0.0 0.0 xyz
      dof rx ry rz
   end
:hierarchy
   begin
      root Spine_dum LeftUpLeg_dum RightUpLeg_dum
      Spine_dum Spine
      LeftUpLeg_dum LeftUpLeg
      RightUpLeg_dum RightUpLeg
      Spine Spine_dum1 Spine_dum2 Spine_dum3
      Spine_dum1 Head
      Spine_dum2 LeftShoulder
      Spine_dum3 RightShoulder
      LeftShoulder LeftArm
      LeftArm LeftForeArm
      LeftForeArm LeftHand
      LeftHand LeftHand_dum1 LeftHand_dum2
      LeftHand_dum1 LeftHandThumb1
      RightShoulder RightArm
      RightArm RightForeArm
      RightForeArm RightHand
      RightHand RightHand_dum1 RightHand_dum2
      RightHand_dum1 RightHandThumb1
      LeftUpLeg LeftLeg
      LeftLeg LeftFoot
      LeftFoot LeftToeBase
      RightUpLeg RightLeg
      RightLeg RightFoot
      RightFoot RightToeBase
   end

# File created by Blade
# Date/Time:  Wed Apr 08 17:39:35 2015
# Frame Rate: 120.000 fps
#------------------------------------------------------
:FULLY-SPECIFIED
:DEGREES
1569
root 8.101512 36.149690 3.858730 41.262784 -72.123484 -376.356398
Spine -27.201593 -3.680131 -0.541541
Head 40.343904 -3.711703 14.932180
LeftShoulder -9.224678 22.591665 14.048642
LeftArm 21.820017 23.422955 -75.279235
LeftForeArm 16.622804 -0.000000 26.486194
LeftHand -12.055929 0.000000 -11.480225
LeftHandThumb1 -26.253704 0.000000 33.147579
RightShoulder -38.929143 -51.100911 20.696306
RightArm 57.536698 -21.622007 46.834222
RightForeArm -3.940803 -0.000000 20.959216
RightHand 0.752254 0.000000 14.752405
RightHandThumb1 -24.326973 -0.000000 -32.862282
LeftUpLeg -32.235044 7.359257 -7.964356
LeftLeg 20.307940 -0.000000 -0.000000
LeftFoot -16.142199 13.024829 -3.811286
LeftToeBase 4.945663 -0.000000 -0.000000
RightUpLeg -82.644946 -14.150648 3.274651
RightLeg 75.319233 -0.000000 -0.000000
RightFoot 24.590721 -23.624624 27.373920
RightToeBase -9.848333 -0.000000 0.000000
1570
root 8.105441 36.150338 3.865556 41.595389 -72.412865 -376.666114
Spine -27.221301 -3.645597 -0.616533
Head 40.432713 -3.541156 15.024698
LeftShoulder -9.292226 22.657766 14.058575
LeftArm 21.749931 23.460131 -75.229531
LeftForeArm 16.564013 -0.000000 26.414468
LeftHand -12.051466 0.000000 -11.527797
LeftHandThumb1 -26.253704 0.000000 33.147579
RightShoulder -38.832371 -51.081268 20.618438
RightArm 57.708156 -21.586469 46.845401
RightForeArm -4.552580 -0.000000 20.906374
RightHand 0.899936 0.000000 14.204502
RightHandThumb1 -24.326973 -0.000000 -32.862282
LeftUpLeg -32.269773 7.483001 -8.036583
LeftLeg 20.308077 -0.000000 -0.000000
LeftFoot -16.151951 13.164607 -3.787861
LeftToeBase 4.946918 -0.000000 -0.000000
RightUpLeg -82.884066 -14.125935 4.034324
RightLeg 75.705430 -0.000000 -0.000000
RightFoot 25.534939 -23.306346 28.011926
RightToeBase -8.463811 -0.000000 0.000000
1571
root 8.111239 36.150781 3.873336 41.849380 -72.649499 -376.902649
Spine -27.228971 -3.686202 -0.659584
Head 40.532779 -3.356490 15.121155
LeftShoulder -9.326596 22.727133 14.066857
LeftArm 21.659543 23.459046 -75.213470
LeftForeArm 16.540226 0.000000 26.293667
LeftHand -11.954075 -0.000000 -11.499662
LeftHandThumb1 -26.253704 0.000000 33.147579
RightShoulder -38.718079 -51.059762 20.512355
RightArm 57.859764 -21.535021 46.893418
RightForeArm -4.965083 -0.000000 20.850806
RightHand 0.900834 -0.000000 13.124825
RightHandThumb1 -24.326973 -0.000000 -32.862282
LeftUpLeg -32.292182 7.550310 -8.096028
LeftLeg 20.301419 -0.000000 -0.000000
LeftFoot -16.171048 13.271884 -3.894423
LeftToeBase 4.907866 -0.000000 -0.000000
RightUpLeg -83.158304 -14.191565 4.927252
RightLeg 76.088256 -0.000000 -0.000000
RightFoot 26.407003 -22.946746 28.435373
RightToeBase -7.262609 -0.000000 0.000000
1572
root 8.115107 36.151318 3.880382 42.070213 -72.873033 -377.110562
Spine -27.234558 -3.757626 -0.689557
Head 40.644583 -3.167864 15.195984
LeftShoulder -9.375227 22.760849 14.066817
LeftArm 21.543412 23.502226 -75.185268
LeftForeArm 16.527569 -0.000000 26.152143
LeftHand -11.871479 -0.000000 -11.606624
LeftHandThumb1 -26.253704 0.000000 33.147579
RightShoulder -38.620885 -51.034610 20.418675
RightArm 58.012571 -21.469451 46.932980
RightForeArm -5.331323 -0.000000 20.796634
RightHand 1.088356 -0.000000 12.924679
RightHandThumb1 -24.326973 -0.000000 -32.862282
LeftUpLeg -32.302160 7.641912 -8.170789
LeftLeg 20.284480 -0.000000 -0.000000
LeftFoot -16.186299 13.369244 -3.968545
LeftToeBase 4.885763 -0.000000 -0.000000
RightUpLeg -83.446201 -14.285647 5.923511
RightLeg 76.469429 -0.000000 -0.000000
RightFoot 26.994960 -22.675186 28.924998
RightToeBase -6.114850 -0.000000 0.000000
1573
root 8.119980 36.151180 3.887008 42.287329 -73.066798 -377.324190
Spine -27.230597 -3.840518 -0.689532
Head 40.760428 -2.992200 15.235406
LeftShoulder -9.399143 22.833461 14.032652
LeftArm 21.474094 23.491064 -75.120654
LeftForeArm 16.790463 0.000000 25.974191
LeftHand -11.729782 -0.000000 -12.004218
LeftHandThumb1 -26.253704 0.000000 33.147579
RightShoulder -38.509670 -51.003142 20.289008
RightArm 58.103123 -21.377338 47.062256
RightForeArm -5.559097 0.000000 20.763485
RightHand 1.108478 -0.000000 12.090228
RightHandThumb1 -24.326973 -0.000000 -32.862282
LeftUpLeg -32.310751 7.738683 -8.231201
LeftLeg 20.280464 -0.000000 -0.000000
LeftFoot -16.144578 13.430293 -3.929479
LeftToeBase 4.732000 -0.000000 -0.000000
RightUpLeg -83.732317 -14.402901 6.986390
RightLeg 76.810002 -0.000000 -0.000000
RightFoot 27.439904 -22.478420 29.471360
RightToeBase -4.850663 -0.000000 0.000000
1574
root 8.129070 36.151384 3.894497 42.539114 -73.298535 -377.472611
Spine -27.333591 -3.897625 -0.743578
Head 40.836989 -2.852731 15.303678
LeftShoulder -9.399730 22.851662 14.048797
LeftArm 21.363986 23.556247 -75.092718
LeftForeArm 16.698711 -0.000000 25.759789
LeftHand -11.684960 0.000000 -12.028137
LeftHandThumb1 -26.253704 0.000000 33.147579
RightShoulder -38.416463 -50.927922 20.139975
RightArm 58.120662 -21.341291 47.208637
RightForeArm -5.696676 -0.000000 20.800482
RightHand 1.193161 -0.000000 12.071837
RightHandThumb1 -24.326973 -0.000000 -32.862282
LeftUpLeg -32.408698 7.863363 -8.362464
LeftLeg 20.242828 -0.000000 -0.000000
LeftFoot -16.162909 13.457394 -3.994888
LeftToeBase 4.790267 -0.000000 -0.000000
RightUpLeg -84.127004 -14.487553 8.073035
RightLeg 77.083442 -0.000000 -0.000000
RightFoot 27.855567 -22.317601 30.033249
RightToeBase -3.000986 -0.000000 0.000000
1575
root 8.140476 36.154102 3.898095 42.806984 -73.435265 -377.586787
Spine -27.492608 -4.019834 -0.731756
Head 40.912905 -2.722714 15.351430
LeftShoulder -9.397822 22.833054 14.054549
LeftArm 21.241532 23.642945 -75.067595
LeftForeArm 16.693301 -0.000000 25.500215
LeftHand -11.586993 -0.000000 -12.108182
LeftHandThumb1 -26.253704 0.000000 33.147579
RightShoulder -38.434950 -50.911659 20.110084
RightArm 58.184531 -21.239369 47.308751
RightForeArm -5.643490 -0.000000 20.871161
RightHand 1.208708 0.000000 11.236317
RightHandThumb1 -24.326973 -0.000000 -32.862282
LeftUpLeg -32.572530 7.935890 -8.452006
LeftLeg 20.221947 -0.000000 -0.000000
LeftFoot -16.179851 13.446560 -4.170819
LeftToeBase 4.773510 -0.000000 -0.000000
RightUpLeg -84.581300 -14.643491 9.279691
RightLeg 77.316210 -0.000000 -0.000000
RightFoot 28.136967 -22.313335 30.854258
RightToeBase -1.191487 -0.000000 0.000000
